<svg xmlns="http://www.w3.org/2000/svg" viewBox="0 0 24 24">
  <path fill="#25D366" d="M12 0C5.3726 0 0 5.3726 0 12c0 2.117.553 4.091 1.603 5.827L0 24l6.35-1.642A11.958 11.958 0 0012 24c6.6274 0 12-5.3726 12-12S18.6274 0 12 0z"/>
  <path fill="#FFF" d="M17.472 14.382c-.297-.149-1.758-.867-2.029-.967-.272-.099-.47-.149-.669.149-.198.297-.767.967-.941 1.165-.173.198-.347.223-.644.074-.297-.149-1.255-.463-2.39-1.475-.883-.788-1.48-1.761-1.653-2.059-.173-.297-.018-.458.13-.606.134-.133.298-.347.447-.52.149-.174.198-.298.298-.497.099-.198.05-.371-.025-.52-.074-.149-.669-1.611-.916-2.206-.242-.579-.487-.5-.669-.51l-.57-.01c-.198 0-.52.074-.793.372s-1.04 1.016-1.04 2.479 1.064 2.876 1.213 3.074c.149.198 2.095 3.2 5.076 4.487.709.306 1.26.489 1.693.626.712.227 1.36.195 1.872.118.571-.085 1.758-.719 2.006-1.413.248-.695.248-1.29.173-1.413-.074-.124-.272-.198-.57-.347z"/>
</svg>
